<svg id="circle-of-two-clockwise-arrows-rotation" xmlns="http://www.w3.org/2000/svg" width="20.023" height="20.625" viewBox="0 0 20.023 20.625">
  <g id="Group_3" data-name="Group 3" transform="translate(0)">
    <path id="Path_4" data-name="Path 4" d="M21.521,1.2a.438.438,0,0,0-.478.1L19.22,3.122A10.185,10.185,0,0,0,11.86,0,10.287,10.287,0,0,0,1.894,7.727a.438.438,0,0,0,.424.548H5.112a.438.438,0,0,0,.412-.288,6.729,6.729,0,0,1,6.333-4.444,6.676,6.676,0,0,1,4.86,2.083L14.865,7.477a.438.438,0,0,0,.31.749h6.179a.439.439,0,0,0,.438-.438V1.609A.439.439,0,0,0,21.521,1.2Z" transform="translate(-1.769)" fill="#464646"/>
    <path id="Path_5" data-name="Path 5" d="M20.847,56.328H18.054a.438.438,0,0,0-.412.288A6.729,6.729,0,0,1,11.31,61.06a6.676,6.676,0,0,1-4.86-2.083L8.3,57.126a.438.438,0,0,0-.31-.749H1.812a.439.439,0,0,0-.438.438v6.179a.438.438,0,0,0,.749.31l1.823-1.823a10.185,10.185,0,0,0,7.36,3.122,10.287,10.287,0,0,0,9.966-7.727.438.438,0,0,0-.425-.548Z" transform="translate(-1.374 -43.978)" fill="#464646"/>
  </g>
</svg>
