<svg xmlns="http://www.w3.org/2000/svg" width="17.115" height="22" viewBox="0 0 17.115 22">
  <g id="delete_1_" data-name="delete (1)" transform="translate(0)">
    <path id="Path_17" data-name="Path 17" d="M126.793,1.328h3.677v.619H131.8V1.241A1.242,1.242,0,0,0,130.557,0h-3.851a1.242,1.242,0,0,0-1.241,1.241v.705h1.328Zm0,0" transform="translate(-120.073 0)" fill="#464646"/>
    <path id="Path_18" data-name="Path 18" d="M53.541,167.75H41.075a.585.585,0,0,0-.583.632l1.042,12.887a1.384,1.384,0,0,0,1.379,1.273H51.7a1.384,1.384,0,0,0,1.379-1.274l1.042-12.886a.585.585,0,0,0-.583-.632Zm-9.447,13.417h-.042a.664.664,0,0,1-.662-.623l-.653-10.579a.664.664,0,0,1,1.325-.082l.653,10.579a.664.664,0,0,1-.622.7Zm3.886-.663a.664.664,0,0,1-1.328,0V169.925a.664.664,0,0,1,1.328,0Zm3.9-10.54-.624,10.579a.664.664,0,0,1-.662.625h-.04a.664.664,0,0,1-.624-.7l.623-10.579a.664.664,0,0,1,1.326.078Zm0,0" transform="translate(-38.75 -160.542)" fill="#464646"/>
    <path id="Path_19" data-name="Path 19" d="M17.087,78.1l-.436-1.307a.844.844,0,0,0-.8-.577H1.266a.844.844,0,0,0-.8.577L.029,78.1a.549.549,0,0,0,.52.721H16.567a.541.541,0,0,0,.29-.084.547.547,0,0,0,.23-.637Zm0,0" transform="translate(0 -72.937)" fill="#464646"/>
  </g>
</svg>
