<svg xmlns="http://www.w3.org/2000/svg" width="34.85" height="20.774" viewBox="0 0 34.85 20.774">
  <g id="eye" transform="translate(0 -98.725)">
    <path id="Path_38" data-name="Path 38" d="M17.425,98.725c-6.658,0-12.7,3.643-17.152,9.56a1.379,1.379,0,0,0,0,1.647c4.456,5.924,10.494,9.567,17.152,9.567s12.7-3.643,17.152-9.56a1.379,1.379,0,0,0,0-1.647C30.121,102.368,24.083,98.725,17.425,98.725Zm.478,17.7a7.33,7.33,0,1,1,6.837-6.837A7.334,7.334,0,0,1,17.9,116.426Zm-.221-3.379a3.947,3.947,0,1,1,3.686-3.686A3.94,3.94,0,0,1,17.681,113.047Z" fill="#c4c4c4"/>
  </g>
</svg>
