<svg xmlns="http://www.w3.org/2000/svg" width="119.441" height="46" viewBox="0 0 119.441 46">
  <g id="Group_97" data-name="Group 97" transform="translate(-1602 69)">
    <g id="Group_96" data-name="Group 96" transform="translate(0 -99)">
      <g id="Rectangle_22" data-name="Rectangle 22" transform="translate(1602 30)" fill="#fff" stroke="#707070" stroke-width="1">
        <rect width="119.441" height="46" rx="10" stroke="none"/>
        <rect x="0.5" y="0.5" width="118.441" height="45" rx="9.5" fill="none"/>
      </g>
      <text id="COPY" transform="translate(1654 61)" fill="#464646" font-size="20" font-family="SegoeUI, Segoe UI"><tspan x="0" y="0">COPY</tspan></text>
    </g>
    <path id="copy-2" data-name="copy" d="M25.461,44.506H24.334V43.38A3.384,3.384,0,0,0,20.955,40H3.38A3.384,3.384,0,0,0,0,43.38V56.448a3.384,3.384,0,0,0,3.38,3.38H4.506v1.127a3.384,3.384,0,0,0,3.38,3.38H25.461a3.384,3.384,0,0,0,3.38-3.38V47.886A3.384,3.384,0,0,0,25.461,44.506ZM4.506,57.575H3.38a1.128,1.128,0,0,1-1.127-1.127V43.38A1.128,1.128,0,0,1,3.38,42.253H20.955a1.128,1.128,0,0,1,1.127,1.127v1.127H7.886a3.384,3.384,0,0,0-3.38,3.38Zm2.253,3.38v-.68l5.555-7.766,2.119,2.779-2.374,3.361,1.84,1.3,3.663-5.185,5.629,7.318H7.886A1.128,1.128,0,0,1,6.76,60.955Zm19.828,0a1.127,1.127,0,0,1-.64,1.014l-8.462-11L15.8,53.359l-3.54-4.642L6.76,56.4V47.886A1.128,1.128,0,0,1,7.886,46.76H25.461a1.128,1.128,0,0,1,1.127,1.127ZM24.447,50.646a1.69,1.69,0,1,1-1.69-1.69A1.69,1.69,0,0,1,24.447,50.646Z" transform="translate(1616.58 -97.95)" fill="#464646"/>
  </g>
</svg>
