<svg xmlns="http://www.w3.org/2000/svg" width="46" height="46" viewBox="0 0 46 46">
  <g id="Group_41" data-name="Group 41" transform="translate(-914 -30)">
    <g id="Rectangle_18" data-name="Rectangle 18" transform="translate(914 30)" fill="#fff" stroke="#707070" stroke-width="1">
      <rect width="46" height="46" rx="10" stroke="none"/>
      <rect x="0.5" y="0.5" width="45" height="45" rx="9.5" fill="none"/>
    </g>
    <path id="crop" d="M25.852,19.445a1.449,1.449,0,0,0-1.2-.639H21.721V7.206h0V5.324l3.665-3.647a.8.8,0,0,0,.1-.114.726.726,0,0,0,0-.8.694.694,0,0,0-.346-.279.723.723,0,0,0-.186-.044c-.023,0-.046,0-.069,0s-.046,0-.069,0a.723.723,0,0,0-.443.209L20.725,4.306H7.221V1.45A1.431,1.431,0,0,0,4.986.248a1.505,1.505,0,0,0-.4.392,1.454,1.454,0,0,0-.26.811V4.306H1.45A1.45,1.45,0,0,0,.331,6.678q.044.054.094.1a1.446,1.446,0,0,0,1.025.425H4.321V20.227s0,0,0,.007,0,0,0,.007h0v.029a1.441,1.441,0,0,0,.26.8,1.461,1.461,0,0,0,1.2.633H18.821V24.65a1.45,1.45,0,0,0,2.9,0V21.706H24.65a1.45,1.45,0,0,0,1.2-2.261ZM17.825,7.206,7.221,17.781V7.206Zm-9.549,11.6L18.821,8.231V18.806Z" transform="translate(923.2 40.7)" fill="#464646"/>
  </g>
</svg>
