<svg xmlns="http://www.w3.org/2000/svg" width="46" height="46" viewBox="0 0 46 46">
  <g id="Group_86" data-name="Group 86" transform="translate(-4544 -403)">
    <g id="Group_53" data-name="Group 53">
      <rect id="Rectangle_114" data-name="Rectangle 114" width="46" height="46" rx="10" transform="translate(4544 403)" fill="#c4c4c4"/>
    </g>
    <g id="Polygon_28" data-name="Polygon 28" transform="translate(4550 411)" fill="none" stroke-linecap="square" stroke-dasharray="4 3">
      <path d="M17,0,34,28H0Z" stroke="none"/>
      <path d="M 20.11386871337891 5.128730773925781 L 20.25802993774414 5.366168975830078 L 23.22773742675781 10.2574520111084 L 21.51815986633301 11.29541015625 L 20.99917984008789 10.44062042236328 L 18.92327117919922 7.021469116210938 L 18.40428924560547 6.166679382324219 L 20.11386871337891 5.128730773925781 Z M 23.74671745300293 11.11224174499512 L 23.90048980712891 11.36551094055176 L 24.26568984985352 11.9670295715332 C 24.26568984985352 11.9670295715332 25.61054039001465 14.18206977844238 26.13536643981934 15.04648590087891 L 26.13754653930664 15.05007839202881 C 26.14043998718262 15.05484199523926 26.14331436157227 15.05957794189453 26.14615631103516 15.06425762176514 L 26.15418243408203 15.07747840881348 C 26.15472030639648 15.07836055755615 26.1552677154541 15.07926368713379 26.15579986572266 15.08014297485352 L 26.15756797790527 15.08305358886719 C 26.15832710266113 15.084303855896 26.15911865234375 15.08560657501221 26.15987396240234 15.0868501663208 L 26.44540405273438 15.55713558197021 L 26.86058044433594 16.24095916748047 L 25.15100860595703 17.2789192199707 L 24.63203048706055 16.42412948608398 L 22.55611991882324 13.00498008728027 L 22.03713989257813 12.15019035339355 L 23.74671936035156 11.11223983764648 Z M 27.37956047058105 17.09574890136719 L 27.89854049682617 17.95053863525391 C 27.89854049682617 17.95053863525391 29.97444915771484 21.36968994140625 29.97444915771484 21.36968994140625 L 30.49342918395996 22.22447967529297 L 28.78385925292969 23.26243019104004 L 28.2648811340332 22.40764045715332 L 26.1889705657959 18.98849105834961 L 25.66999053955078 18.13370895385742 L 27.37956047058105 17.09574890136719 Z M 31.01240921020508 23.07926177978516 L 33.54130554199219 27.2445011138916 C 33.54183578491211 27.24537658691406 33.54233932495117 27.24620819091797 33.54286575317383 27.24707412719727 L 33.54306030273438 27.24739074707031 C 33.54427719116211 27.24939727783203 33.54546356201172 27.2513542175293 33.54664993286133 27.2533073425293 L 33.54851531982422 27.25637817382813 C 33.54876708984375 27.25679397583008 33.54903411865234 27.25723075866699 33.54928207397461 27.25764274597168 L 33.54969787597656 27.25832939147949 C 33.54999542236328 27.25881576538086 33.55029296875 27.25930595397949 33.55058670043945 27.25979042053223 L 33.55081939697266 27.26016998291016 C 33.55108642578125 27.2606143951416 33.55134582519531 27.26103782653809 33.55161285400391 27.2614803314209 L 33.55199432373047 27.26210975646973 C 33.55221939086914 27.26247787475586 33.55238723754883 27.26275825500488 33.5526123046875 27.26312255859375 L 33.55642700195313 27.2694091796875 C 33.55646896362305 27.26947975158691 33.55651092529297 27.26955032348633 33.55655670166016 27.26962089538574 L 33.56135177612305 27.27752304077148 C 33.56149673461914 27.27775955200195 33.56162261962891 27.27796936035156 33.561767578125 27.2782039642334 L 33.56242370605469 27.27928352355957 C 33.56246185302734 27.27935028076172 33.56253051757813 27.27946281433105 33.56257247924805 27.2795295715332 L 33.5688591003418 27.28988456726074 C 33.5691032409668 27.2902889251709 33.56938171386719 27.29074668884277 33.56962585449219 27.29114532470703 L 33.57068252563477 27.29288864135742 C 33.57079315185547 27.29306983947754 33.57086181640625 27.29318046569824 33.57096862792969 27.29336166381836 L 33.57242584228516 27.29576301574707 C 33.57255172729492 27.29597091674805 33.57263565063477 27.29610824584961 33.57276153564453 27.29631423950195 L 33.57415390014648 27.29860496520996 C 33.57429122924805 27.29883575439453 33.57447052001953 27.29912567138672 33.57460784912109 27.29935455322266 L 33.57475662231445 27.29959869384766 C 33.57651519775391 27.30249214172363 33.57818984985352 27.30525588989258 33.57981491088867 27.30792808532715 L 33.58044815063477 27.30897331237793 C 33.5816535949707 27.31096076965332 33.58280181884766 27.31285095214844 33.58393096923828 27.31471061706543 L 33.58400726318359 27.31483268737793 C 33.58424377441406 27.31522369384766 33.5844612121582 27.31558036804199 33.58469390869141 27.31596565246582 L 33.58469390869141 27.31596565246582 C 33.58562850952148 27.31750869750977 33.58651733398438 27.31897163391113 33.58739852905273 27.3204231262207 L 33.58755874633789 27.32068824768066 C 33.58768463134766 27.32089042663574 33.58777236938477 27.32103538513184 33.58789443969727 27.32123565673828 L 33.58819961547852 27.32173919677734 C 33.58830642700195 27.32191848754883 33.58842086791992 27.32210350036621 33.58852767944336 27.32227897644043 L 33.58951187133789 27.32389831542969 C 33.59029388427734 27.32518768310547 33.59103775024414 27.32641410827637 33.59177017211914 27.32762145996094 L 33.59181594848633 27.32769393920898 C 33.59198379516602 27.32797622680664 33.5921516418457 27.3282527923584 33.59232330322266 27.32852935791016 L 33.59238815307617 27.32863998413086 C 33.59292602539063 27.32952880859375 33.59346771240234 27.33041763305664 33.59397888183594 27.33125877380371 L 33.5941047668457 27.33146667480469 C 33.59482574462891 27.33265686035156 33.59553527832031 27.33382606506348 33.5962028503418 27.33492088317871 L 33.59655380249023 27.33550262451172 C 33.59677886962891 27.33587265014648 33.59701156616211 27.33625221252441 33.59722900390625 27.33661079406738 L 33.59742736816406 27.33694267272949 C 33.59758758544922 27.33720016479492 33.59775161743164 27.33747291564941 33.59790420532227 27.33772468566895 L 33.5982551574707 27.33830451965332 C 33.59827423095703 27.33833503723145 33.59828186035156 27.33834457397461 33.59830093383789 27.33837509155273 L 33.59991455078125 27.34103775024414 C 33.60006713867188 27.34128952026367 33.60022354125977 27.3415412902832 33.60037231445313 27.34178733825684 L 33.60079956054688 27.34249114990234 C 33.60090255737305 27.3426628112793 33.60101318359375 27.34284400939941 33.60111236572266 27.3430118560791 L 33.60178375244141 27.34411430358887 C 33.60189437866211 27.34429740905762 33.60199737548828 27.3444652557373 33.60210418701172 27.34464263916016 L 33.60238647460938 27.3451042175293 C 33.60250473022461 27.34530067443848 33.60260772705078 27.3454704284668 33.60272216796875 27.34565925598145 L 33.60274887084961 27.345703125 C 33.60317230224609 27.34640121459961 33.60356140136719 27.34704399108887 33.60392761230469 27.3476448059082 L 33.60393524169922 27.34766006469727 C 33.60402297973633 27.34780311584473 33.60411071777344 27.34794807434082 33.60419464111328 27.34808540344238 L 33.60421371459961 27.34811973571777 C 33.60429382324219 27.34824752807617 33.60437774658203 27.34838485717773 33.60445022583008 27.34850692749023 L 33.6044807434082 27.34855461120605 C 33.60634613037109 27.35162734985352 33.6072998046875 27.35320091247559 33.6072998046875 27.35320091247559 L 34 28 L 31.66024017333984 28 L 31.66024017333984 28 C 31.0506534576416 28 27.75667953491211 28 27.75667953491211 28 L 26.75667953491211 28 L 26.75667953491211 26 L 27.75667953491211 26 L 30.44594955444336 26 L 29.82180976867676 24.97200965881348 L 29.30282974243164 24.11721992492676 L 31.01240921020508 23.07925987243652 Z M 19.75667953491211 26 L 20.75667953491211 26 L 24.75667953491211 26 L 25.75667953491211 26 L 25.75667953491211 28 L 24.75667953491211 28 C 24.75667953491211 28 20.75667953491211 28 20.75667953491211 28 L 19.75667953491211 28 L 19.75667953491211 26 Z M 12.75667953491211 26 L 13.75667953491211 26 L 17.75667953491211 26 L 18.75667953491211 26 L 18.75667953491211 28 L 17.75667953491211 28 C 17.75667953491211 28 13.75667953491211 28 13.75667953491211 28 L 12.75667953491211 28 L 12.75667953491211 26 Z M 5.756679534912109 26 L 6.756679534912109 26 L 10.75667953491211 26 L 11.75667953491211 26 L 11.75667953491211 28 L 10.75667953491211 28 C 10.75667953491211 28 6.756679534912109 28 6.756679534912109 28 L 5.756679534912109 28 L 5.756679534912109 26 Z M 4.278099060058594 20.95371055603027 L 5.987680435180664 21.99167060852051 L 5.468700408935547 22.84646034240723 L 3.554052352905273 26 L 3.756679534912109 26 L 4.756679534912109 26 L 4.756679534912109 28 L 3.756679534912109 28 C 3.756679534912109 28 3.102285385131836 28 2.339759826660156 28 L 2.339759826660156 28 L 0 28 L 0 28 C 0 28 0 28 0 28 L 0 28 L 0 28 L 0 28 C 0 28 0 28 0 28 L 2.355506896972656 24.12034034729004 C 2.355627059936523 24.12014389038086 2.355817794799805 24.11983108520508 2.355936050415039 24.11963272094727 L 2.359487533569336 24.1137866973877 C 2.360443115234375 24.11221122741699 2.361433029174805 24.11058044433594 2.362390518188477 24.1090030670166 L 2.366701126098633 24.10190391540527 C 2.367120742797852 24.1012134552002 2.367528915405273 24.10054016113281 2.367948532104492 24.09984970092773 L 2.372673034667969 24.09206771850586 C 2.976806640625 23.09702682495117 3.759130477905273 21.80850028991699 3.759130477905273 21.80850028991699 L 4.028224945068359 21.36527633666992 L 4.278102874755859 20.95371246337891 Z M 7.91094970703125 14.97019958496094 L 9.620529174804688 16.00815963745117 L 9.10154914855957 16.86293983459473 L 7.025630950927734 20.28208923339844 L 6.506660461425781 21.13687896728516 L 4.797079086303711 20.09891891479492 L 5.14306640625 19.52906799316406 L 5.316059112548828 19.244140625 C 5.316059112548828 19.244140625 6.567255020141602 17.18334579467773 7.126893997192383 16.2615852355957 L 7.126998901367188 16.26141357421875 C 7.128450393676758 16.2590217590332 7.129875183105469 16.25667572021484 7.131317138671875 16.25429916381836 L 7.139339447021484 16.2410888671875 C 7.139640808105469 16.24059104919434 7.140024185180664 16.23995971679688 7.140325546264648 16.23946380615234 L 7.140790939331055 16.23869705200195 C 7.141094207763672 16.23819923400879 7.141458511352539 16.23759651184082 7.141759872436523 16.23710060119629 L 7.14323616027832 16.23466873168945 C 7.14349365234375 16.23424530029297 7.143762588500977 16.23380279541016 7.144020080566406 16.23337745666504 L 7.165983200073242 16.19720458984375 C 7.166769027709961 16.1959114074707 7.167551040649414 16.19462203979492 7.168333053588867 16.19333457946777 L 7.91094970703125 14.97019958496094 Z M 11.54380035400391 8.986690521240234 L 13.25337028503418 10.02463912963867 L 12.73439025878906 10.87943077087402 L 10.65847969055176 14.29858016967773 L 10.13949966430664 15.15336990356445 L 8.429929733276367 14.11540985107422 L 8.948909759521484 13.2606201171875 C 8.948909759521484 13.2606201171875 9.240100860595703 12.7810115814209 9.604341506958008 12.18108463287354 L 9.606910705566406 12.17685222625732 C 9.60833740234375 12.17450332641602 9.609931945800781 12.17187881469727 9.611358642578125 12.16952610015869 L 9.61163330078125 12.16907501220703 C 9.613418579101563 12.16613388061523 9.615116119384766 12.16333961486816 9.616903305053711 12.16039276123047 L 9.617343902587891 12.15966892242432 C 9.621040344238281 12.15357875823975 9.624691009521484 12.14756679534912 9.628402709960938 12.14145278930664 L 9.629047393798828 12.14039134979248 C 9.636293411254883 12.12845802307129 9.643598556518555 12.11642742156982 9.650894165039063 12.10440921783447 L 9.652482986450195 12.10179138183594 C 9.656044006347656 12.09592819213867 9.659608840942383 12.09005451202393 9.663181304931641 12.08417224884033 L 9.663421630859375 12.08377647399902 C 9.66705322265625 12.07779407501221 9.670833587646484 12.07156848907471 9.674476623535156 12.06556797027588 L 9.675418853759766 12.0640172958374 C 9.67906379699707 12.05801391601563 9.682531356811523 12.05229949951172 9.686187744140625 12.04627895355225 L 9.687122344970703 12.04473972320557 C 9.68864631652832 12.04222965240479 9.69029426574707 12.03951644897461 9.691818237304688 12.03700351715088 L 9.693342208862305 12.03449630737305 C 9.693952560424805 12.03349113464355 9.694559097290039 12.03249073028564 9.695169448852539 12.03148555755615 L 9.695795059204102 12.03045558929443 C 9.696222305297852 12.02975082397461 9.696638107299805 12.02906608581543 9.697065353393555 12.02836227416992 L 9.699787139892578 12.02388095855713 C 9.700275421142578 12.02307510375977 9.700807571411133 12.02220058441162 9.701295852661133 12.02139377593994 L 9.701295852661133 12.02139377593994 C 9.704111099243164 12.01675987243652 9.706867218017578 12.0122184753418 9.709686279296875 12.0075740814209 L 9.710664749145508 12.00596523284912 C 9.712196350097656 12.00344085693359 9.713768005371094 12.00085258483887 9.715303421020508 11.99832534790039 L 9.716779708862305 11.99589157104492 C 9.71727180480957 11.99508285522461 9.717767715454102 11.99426651000977 9.718257904052734 11.99345588684082 L 9.719465255737305 11.99146842956543 C 9.71995735168457 11.99065971374512 9.720474243164063 11.98980522155762 9.720966339111328 11.9889965057373 L 9.722774505615234 11.98601913452148 C 9.723388671875 11.98500633239746 9.724092483520508 11.98384857177734 9.724706649780273 11.98283576965332 L 9.725002288818359 11.98234939575195 C 9.725864410400391 11.98093032836914 9.726705551147461 11.97954177856445 9.727567672729492 11.97812271118164 L 9.728000640869141 11.9774112701416 C 9.729415893554688 11.97507858276367 9.730880737304688 11.9726676940918 9.732297897338867 11.97033309936523 L 9.734806060791016 11.96620178222656 C 9.735176086425781 11.96559143066406 9.735660552978516 11.96479606628418 9.736030578613281 11.96418571472168 L 9.737447738647461 11.96184921264648 C 9.737819671630859 11.96123886108398 9.738143920898438 11.96070289611816 9.738515853881836 11.96009254455566 L 9.749933242797852 11.94128608703613 C 9.750057220458984 11.94108200073242 9.75001335144043 11.94115447998047 9.750137329101563 11.94095039367676 L 11.16898155212402 9.604030609130859 L 11.54380035400391 8.986690521240234 Z M 15.17663955688477 3.003170013427734 L 16.88622093200684 4.041130065917969 L 16.36724090576172 4.895919799804688 L 14.29133033752441 8.315069198608398 L 13.7723503112793 9.16986083984375 L 12.06278038024902 8.131900787353516 L 12.33187484741211 7.688674926757813 L 13.82136726379395 5.235395431518555 C 13.82248878479004 5.233549118041992 13.82359504699707 5.231725692749023 13.82471466064453 5.229881286621094 L 13.82561492919922 5.228397369384766 C 13.82941246032715 5.222145080566406 13.8332347869873 5.215848922729492 13.83702278137207 5.209609985351563 L 13.83745193481445 5.208904266357422 C 14.27455139160156 4.488975524902344 14.65766906738281 3.857959747314453 14.65766906738281 3.857959747314453 L 14.81143951416016 3.60468864440918 L 15.17664527893066 3.003173828125 Z M 17 0 L 18.16988372802734 1.926870346069336 L 18.16988372802734 1.926870346069336 C 18.64134216308594 2.703388214111328 19.07590866088867 3.419149398803711 19.07590866088867 3.419149398803711 L 19.59489059448242 4.27393913269043 L 17.88532066345215 5.3118896484375 L 17.36634063720703 4.457109451293945 L 16.12165832519531 2.407054901123047 L 15.69561958312988 2.14838981628418 L 17 0 Z" stroke="none" fill="#56586d"/>
    </g>
  </g>
</svg>
