<svg xmlns="http://www.w3.org/2000/svg" width="46" height="46" viewBox="0 0 46 46">
  <g id="Group_79" data-name="Group 79" transform="translate(-5656 52)">
    <g id="Rectangle_128" data-name="Rectangle 128" transform="translate(5656 -52)" fill="#fff" stroke="#707070" stroke-width="1">
      <rect width="46" height="46" rx="10" stroke="none"/>
      <rect x="0.5" y="0.5" width="45" height="45" rx="9.5" fill="none"/>
    </g>
    <g id="delete_1_" data-name="delete (1)" transform="translate(5668.903 -43.179)">
      <path id="Path_17" data-name="Path 17" d="M127.056,1.591h4.405v.741h1.591V1.487A1.488,1.488,0,0,0,131.565,0h-4.614a1.489,1.489,0,0,0-1.486,1.487v.845h1.591Zm0,0" transform="translate(-119.006 0)" fill="#464646"/>
      <path id="Path_18" data-name="Path 18" d="M56.126,167.75H41.191a.7.7,0,0,0-.7.757l1.249,15.439a1.658,1.658,0,0,0,1.652,1.526h10.53a1.658,1.658,0,0,0,1.652-1.526l1.249-15.439a.7.7,0,0,0-.7-.757ZM44.807,183.825l-.05,0a.8.8,0,0,1-.793-.747l-.782-12.675a.8.8,0,0,1,1.588-.1l.782,12.674a.8.8,0,0,1-.745.843Zm4.655-.794a.8.8,0,0,1-1.591,0V170.356a.8.8,0,0,1,1.591,0ZM54.135,170.4l-.747,12.674a.8.8,0,0,1-.793.749h-.047a.8.8,0,0,1-.747-.841l.747-12.675a.8.8,0,0,1,1.588.094Zm0,0" transform="translate(-38.406 -159.114)" fill="#464646"/>
      <path id="Path_19" data-name="Path 19" d="M20.471,78.469,19.948,76.9a1.012,1.012,0,0,0-.96-.691H1.516a1.011,1.011,0,0,0-.959.691L.035,78.469a.657.657,0,0,0,.623.864H19.848a.648.648,0,0,0,.347-.1.655.655,0,0,0,.275-.764Zm0,0" transform="translate(0 -72.288)" fill="#464646"/>
    </g>
  </g>
</svg>
