<svg xmlns="http://www.w3.org/2000/svg" width="29" height="29" viewBox="0 0 29 29">
  <g id="Group_77" data-name="Group 77" transform="translate(-2407 -743)">
    <g id="Rectangle_126" data-name="Rectangle 126" transform="translate(2407 743)" fill="#56586d" stroke="#56586d" stroke-width="3">
      <rect width="29" height="29" rx="10" stroke="none"/>
      <rect x="1.5" y="1.5" width="26" height="26" rx="8.5" fill="none"/>
    </g>
    <path id="crop" d="M17.631,13.262a.988.988,0,0,0-.82-.436h-2V4.914h0V3.631l2.5-2.487a.544.544,0,0,0,.07-.078.5.5,0,0,0,0-.544.473.473,0,0,0-.236-.19A.493.493,0,0,0,17.023.3l-.047,0-.047,0a.493.493,0,0,0-.3.143L14.134,2.937H4.924V.989A.976.976,0,0,0,3.4.169a1.027,1.027,0,0,0-.276.267.992.992,0,0,0-.178.553V2.937H.989A.989.989,0,0,0,.226,4.555q.03.037.064.07a.986.986,0,0,0,.7.29H2.947v8.88s0,0,0,.005,0,0,0,0h0v.02a.983.983,0,0,0,.177.547,1,1,0,0,0,.822.432h8.89v2.008a.989.989,0,0,0,1.978,0V14.8h2a.989.989,0,0,0,.82-1.542ZM12.156,4.914,4.924,12.126V4.914ZM5.644,12.826l7.192-7.212v7.212Z" transform="translate(2412.35 748.85)" fill="#fff"/>
  </g>
</svg>
