<svg id="undo" xmlns="http://www.w3.org/2000/svg" width="22.744" height="19.902" viewBox="0 0 22.744 19.902">
  <g id="Group_2" data-name="Group 2">
    <path id="Path_3" data-name="Path 3" d="M.039,43.291a8.062,8.062,0,0,1,8.135-7.029h6.041V32.708a.71.71,0,0,1,1.154-.556l7.107,5.686a.713.713,0,0,1,0,1.112l-7.107,5.686a.711.711,0,0,1-1.156-.556V40.526H8.023a3.694,3.694,0,0,0-3.74,3.186,3.556,3.556,0,0,0,3.535,3.922H13.5a.711.711,0,0,1,.711.711v2.843a.711.711,0,0,1-.711.711H7.819A7.832,7.832,0,0,1,.039,43.291Z" transform="translate(0 -31.996)" fill="#464646"/>
  </g>
</svg>
