<svg id="undo" xmlns="http://www.w3.org/2000/svg" width="22.744" height="19.902" viewBox="0 0 22.744 19.902">
  <g id="Group_2" data-name="Group 2">
    <path id="Path_3" data-name="Path 3" d="M22.706,43.291a8.062,8.062,0,0,0-8.135-7.029H8.529V32.708a.71.71,0,0,0-1.154-.556L.267,37.838a.713.713,0,0,0,0,1.112l7.107,5.686a.711.711,0,0,0,1.156-.556V40.526h6.192a3.694,3.694,0,0,1,3.74,3.186,3.556,3.556,0,0,1-3.535,3.922H9.24a.711.711,0,0,0-.711.711v2.843a.711.711,0,0,0,.711.711h5.686A7.832,7.832,0,0,0,22.706,43.291Z" transform="translate(0 -31.996)" fill="#464646"/>
  </g>
</svg>
